<?xml version="1.0" encoding="UTF-8"?>
<svg width="34px" height="35px" viewBox="0 0 34 35" version="1.1" xmlns="http://www.w3.org/2000/svg" xmlns:xlink="http://www.w3.org/1999/xlink">
    <!-- Generator: Sketch 43 (38999) - http://www.bohemiancoding.com/sketch -->
    <defs></defs>
    <g id="Page-1" stroke="none" stroke-width="1" fill-rule="evenodd">
        <g id="Index-05" transform="translate(-1372.000000, -4169.000000)" fill-rule="nonzero">
            <g id="footer" transform="translate(50.000000, 4150.000000)">
                <g id="social" transform="translate(1322.000000, 18.339623)">
                    <path d="M16.88168,1.01886792 C7.57316,1.01886792 0,8.73491774 0,18.2190702 C0,27.7025298 7.57316,35.4192725 16.88168,35.4192725 C26.18952,35.4192725 33.76336,27.7025298 33.76336,18.2190702 C33.76336,8.73491774 26.19088,1.01886792 16.88168,1.01886792 Z M24.41268,14.2824091 C24.42016,14.4528453 24.42424,14.6246672 24.42424,14.7964891 C24.42424,20.0280498 20.51696,26.0584438 13.36812,26.0584438 C11.17376,26.0584438 9.13104,25.4051049 7.412,24.2813343 C7.71596,24.3180543 8.02536,24.3367608 8.33884,24.3367608 C10.15988,24.3367608 11.83472,23.703514 13.1648,22.6420981 C11.4648,22.6102279 10.02932,21.4656725 9.53496,19.8922551 C9.7716,19.9379819 10.01572,19.9636166 10.26528,19.9636166 C10.61956,19.9636166 10.96364,19.9165042 11.28936,19.8257434 C9.51184,19.4627004 8.17292,17.8629555 8.17292,15.9438158 C8.17292,15.9271879 8.17292,15.9098672 8.1736,15.8939321 C8.6972,16.1897706 9.29628,16.3685208 9.93276,16.3886128 C8.891,15.6798475 8.20488,14.4673947 8.20488,13.0942053 C8.20488,12.3681192 8.39596,11.68776 8.73052,11.1030113 C10.64608,13.4988181 13.51024,15.074314 16.73888,15.2405932 C16.67224,14.9502974 16.63892,14.6489162 16.63892,14.3378355 C16.63892,12.1519562 18.37836,10.3790038 20.52376,10.3790038 C21.64168,10.3790038 22.65012,10.8598279 23.36004,11.6288694 C24.24608,11.4515049 25.07568,11.1231034 25.82844,10.667914 C25.53604,11.5928423 24.922,12.3681192 24.11756,12.858643 C24.90432,12.7630325 25.65504,12.5510264 26.34932,12.2357887 C25.83116,13.0283864 25.17224,13.7260664 24.41268,14.2824091 Z" id="twitter"></path>
                </g>
            </g>
        </g>
    </g>
</svg>