<?xml version="1.0" encoding="UTF-8"?>
<svg width="50px" height="73px" viewBox="0 0 50 73" version="1.1" xmlns="http://www.w3.org/2000/svg" xmlns:xlink="http://www.w3.org/1999/xlink">
    <!-- Generator: Sketch 43 (38999) - http://www.bohemiancoding.com/sketch -->
    <title>place</title>
    <desc>Created with Sketch.</desc>
    <defs></defs>
    <g id="Page-1" stroke="none" stroke-width="1" fill="none" fill-rule="evenodd">
        <g id="contact" transform="translate(-244.000000, -365.000000)">
            <g id="place" transform="translate(244.000000, 365.000000)">
                <path d="M48.6926174,17.9615772 C48.4357383,16.9988255 47.914094,15.9729866 47.5281879,15.0748322 C42.9104027,3.97718121 32.8206376,0 24.6736577,0 C13.7674497,0 1.75553691,7.31308725 0.151845638,22.3870805 L0.151845638,25.4667785 C0.151845638,25.595302 0.19614094,26.7498322 0.259060403,27.327349 C1.15805369,34.5112416 6.82667785,42.1461409 11.0602349,49.3300336 C15.6149329,57.0268456 20.3411074,64.5983221 25.0234899,72.1666107 C27.9107383,67.2276846 30.7875839,62.2238255 33.6090604,57.4127517 C34.3780201,56.0008389 35.2706376,54.5897651 36.0404362,53.2421141 C36.5535235,52.3447987 37.5337248,51.4474832 37.9815436,50.6125839 C42.5360738,42.2738255 49.8671141,33.8706376 49.8671141,25.5951342 L49.8671141,22.1954698 C49.8672819,21.2983221 48.7552013,18.1550336 48.6926174,17.9615772 Z" id="Facebook_Places" fill="#CE3128" fill-rule="nonzero"></path>
                <path d="M24.8733221,33.4216443 C21.6674497,33.4216443 18.1583893,31.8186242 16.4263423,27.3916107 C16.1682886,26.6869128 16.189094,25.2746644 16.189094,25.145302 L16.189094,23.1567114 C16.189094,17.5130872 20.9810403,14.9466443 25.1498322,14.9466443 C30.282047,14.9466443 34.2513423,19.0526846 34.2513423,24.1848993 C34.2513423,29.3169463 30.0055369,33.4216443 24.8733221,33.4216443 Z" id="Facebook_Places-path" fill="#FFFFFF"></path>
            </g>
        </g>
    </g>
</svg>