<?xml version="1.0" encoding="UTF-8"?>
<svg width="80px" height="30px" viewBox="0 0 80 30" version="1.1" xmlns="http://www.w3.org/2000/svg" xmlns:xlink="http://www.w3.org/1999/xlink">
    <!-- Generator: Sketch 43 (38999) - http://www.bohemiancoding.com/sketch -->
    <title>logo-black 11</title>
    <desc>Created with Sketch.</desc>
    <defs></defs>
    <g id="Page-1" stroke="none" stroke-width="1" fill-rule="evenodd">
        <g id="Index-scroll" transform="translate(-189.000000, -15.000000)" fill-rule="nonzero">
            <g id="scroll-menu">
                <g id="logo-black-11" transform="translate(189.000000, 15.000000)">
                    <path d="M77.4837808,17.5575795 L68.3228565,27.5055682 L62.46583,27.5055682 L62.46583,25.8838552 C62.46583,23.5496616 59.5542781,21.4241444 57.3578109,21.4241444 C55.476743,21.4241444 52.6271921,23.1293279 52.6271921,25.8838552 L52.6271921,27.5055682 L46.2598087,27.5055682 L36.5247014,17.5444627 L36.5247014,2.75627837 L43.5159908,2.75627837 L43.5159908,4.37799138 C43.5159908,6.65137069 46.3081023,8.43227392 48.5814816,8.43227392 C50.854861,8.43227392 53.6620326,6.65137069 53.6620326,4.37799138 L53.6620326,2.75627837 L60.9938095,2.75627837 L60.9938095,4.37799138 C60.9938095,6.65137069 63.740921,8.43227392 66.0143003,8.43227392 C68.2876796,8.43227392 71.104922,6.65137069 71.104922,4.37799138 L71.104922,2.75627837 L77.4837808,2.75627837 L77.4837808,17.5575795 Z M68.8522981,0.602927697 L68.8522981,3.44092547 C68.8522981,5.04952169 67.6008365,6.27892325 66.0143003,6.27892325 C64.4277642,6.27892325 63.1763026,5.04952169 63.1763026,3.44092547 L63.1763026,0.602927697 L51.4194794,0.602927697 L51.4194794,3.44092547 C51.4194794,5.04952169 50.1680178,6.27892325 48.5814816,6.27892325 C46.9949455,6.27892325 45.7434839,5.04952169 45.7434839,3.44092547 L45.7434839,0.602927697 L34.392089,0.602927697 L34.392089,18.0357464 L45.7434839,29.7925695 L54.6623092,29.7925695 L54.6623092,26.9545717 C54.6623092,25.3453793 55.7700823,23.7111457 57.3572147,23.7111457 C58.9437508,23.7111457 60.3383048,25.3453793 60.3383048,26.9545717 L60.3383048,29.7925695 L68.8517019,29.7925695 L79.7976685,18.0357464 L79.7976685,0.602927697 L68.8522981,0.602927697 Z" id="Shape"></path>
                    <path d="M26.5462942,28.1148211 L19.2011829,28.1148211 L19.2011829,26.687911 C19.2011829,24.4145317 16.6613126,22.0333973 14.3879333,22.0333973 C12.1145539,22.0333973 9.61944102,23.8143006 9.61944102,26.0876799 L9.61944102,27.3039646 L9.61944102,28.1148211 L2.20314355,28.1148211 L2.20314355,2.82922213 L9.61944102,2.82922213 L9.61944102,4.45093515 C9.61944102,6.5603545 11.9988877,8.91064594 14.3879333,8.91064594 C16.5849967,8.91064594 19.3030482,6.9771109 19.3030482,4.68882614 L19.3030482,4.45093515 L19.3030482,2.82922213 L26.5462942,2.82922213 L26.5462942,28.1148211 Z M17.225931,0.741695217 L17.225931,3.57969299 L17.225931,3.81758398 C17.225931,5.40412013 15.9744694,6.82311902 14.3879333,6.82311902 C12.8013971,6.82311902 11.5499355,5.16682536 11.5499355,3.57969299 L11.5499355,0.741695217 L0.198540601,0.741695217 L0.198540601,29.931337 L11.5499355,29.931337 L11.5499355,27.9041958 L11.5499355,26.687911 C11.5499355,25.1013749 12.8013971,23.8499132 14.3879333,23.8499132 C15.9744694,23.8499132 17.225931,25.1007786 17.225931,26.687911 L17.225931,29.931337 L28.5773259,29.931337 L28.5773259,0.741695217 L17.225931,0.741695217 Z" id="Shape"></path>
                </g>
            </g>
        </g>
    </g>
</svg>