<?xml version="1.0" encoding="UTF-8"?>
<svg width="268px" height="100px" viewBox="0 0 268 100" version="1.1" xmlns="http://www.w3.org/2000/svg" xmlns:xlink="http://www.w3.org/1999/xlink">
    <!-- Generator: Sketch 43 (38999) - http://www.bohemiancoding.com/sketch -->
    <defs></defs>
    <g id="Page-1" stroke="none" stroke-width="1" fill-rule="evenodd">
        <g id="Index-05-tab" transform="translate(-30.000000, -29.000000)" fill-rule="nonzero">
            <g id="logo-big" transform="translate(30.000000, 29.000000)">
                <path d="M149.237186,3.03486897 L149.237186,32.5693931 C149.237186,35.9748414 152.23971,38.853531 155.793945,38.853531 L158.663393,38.853531 L158.663393,44.5092552 L135.413007,44.5092552 L135.413007,3.03486897 L149.237186,3.03486897 L149.237186,3.03486897 Z M151.122428,1.14962759 L133.527766,1.14962759 L133.527766,46.3935724 L160.548634,46.3935724 L160.548634,36.9673655 L155.793945,36.9673655 C153.334814,36.9673655 151.122428,35.0285241 151.122428,32.568469 L151.122428,1.14962759 L151.122428,1.14962759 Z" id="Shape"></path>
                <path d="M113.418524,3.03486897 L113.418524,32.5693931 C113.418524,35.9748414 116.421048,38.853531 119.975283,38.853531 L122.844731,38.853531 L122.844731,44.5092552 L99.5943448,44.5092552 L99.5943448,3.03486897 L113.418524,3.03486897 L113.418524,3.03486897 Z M115.303766,1.14962759 L97.7091034,1.14962759 L97.7091034,46.3935724 L124.729972,46.3935724 L124.729972,36.9673655 L119.975283,36.9673655 C117.516152,36.9673655 115.303766,35.0285241 115.303766,32.568469 L115.303766,1.14962759 L115.303766,1.14962759 Z" id="Shape"></path>
                <path d="M189.453821,2.40645517 C201.234731,2.40645517 210.818966,11.9906897 210.818966,23.7716 C210.818966,35.5525103 201.234731,45.1367448 189.453821,45.1367448 C177.67291,45.1367448 168.088676,35.5525103 168.088676,23.7716 C168.088676,11.9906897 177.67291,2.40645517 189.453821,2.40645517 L189.453821,2.40645517 Z M189.453821,0.521213793 C176.577807,0.521213793 166.203434,10.8965103 166.203434,23.7716 C166.203434,36.6476138 176.577807,47.0219862 189.453821,47.0219862 C202.32891,47.0219862 212.704207,36.6476138 212.704207,23.7716 C212.704207,10.8965103 202.32891,0.521213793 189.453821,0.521213793 L189.453821,0.521213793 Z" id="Shape"></path>
                <path d="M102.107076,55.1913655 C113.887986,55.1913655 123.472221,64.7756 123.472221,76.5565103 C123.472221,88.3374207 113.887986,97.9216552 102.107076,97.9216552 C90.3261655,97.9216552 80.741931,88.3374207 80.741931,76.5565103 C80.741931,64.7756 90.3261655,55.1913655 102.107076,55.1913655 L102.107076,55.1913655 Z M102.107076,53.3061241 C89.2310621,53.3061241 78.8566897,63.6814207 78.8566897,76.5565103 C78.8566897,89.4325241 89.2319862,99.8068966 102.107076,99.8068966 C114.982166,99.8068966 125.357462,89.4325241 125.357462,76.5565103 C125.358386,63.6814207 114.982166,53.3061241 102.107076,53.3061241 L102.107076,53.3061241 Z" id="Shape"></path>
                <path d="M244.747766,55.8197793 C250.200179,55.8465793 255.378124,58.0201517 259.328814,61.9421931 C263.301683,65.8854897 265.489117,71.0754483 265.489117,76.5565103 C265.489117,82.0375724 263.301683,87.2284552 259.328814,91.1717517 C255.3772,95.0937931 250.197407,97.2682897 244.752386,97.2932414 L224.644069,97.2932414 L224.644069,55.8197793 L244.747766,55.8197793 L244.747766,55.8197793 Z M244.752386,53.9345379 L222.758828,53.9345379 L222.758828,99.1784828 L244.752386,99.1784828 C257.001834,99.1221103 267.374359,88.9917103 267.374359,76.5565103 C267.374359,64.1213103 257.001834,53.9918345 244.752386,53.9345379 L244.752386,53.9345379 Z" id="Shape"></path>
                <path d="M68.8029931,55.8197793 L68.8029931,80.2142483 L52.9004276,97.2932414 L42.4105379,97.2932414 L42.4105379,94.7795862 C42.4105379,91.1615862 39.309131,87.8670345 35.9046069,87.8670345 C32.9889517,87.8670345 29.8422621,90.510069 29.8422621,94.7795862 L29.8422621,97.2932414 L18.7027034,97.2932414 L2.19297931,80.1939172 L2.19297931,55.8197793 L16.0171586,55.8197793 L16.0171586,58.3334345 C16.0171586,61.8571724 18.7775586,64.6175724 22.3012966,64.6175724 C25.8250345,64.6175724 28.5854345,61.8571724 28.5854345,58.3334345 L28.5854345,55.8197793 L43.0380276,55.8197793 L43.0380276,58.3334345 C43.0380276,61.8571724 45.7984276,64.6175724 49.3221655,64.6175724 C52.8459034,64.6175724 55.6063034,61.8571724 55.6063034,58.3334345 L55.6063034,55.8197793 L68.8029931,55.8197793 L68.8029931,55.8197793 Z M70.6882345,53.9345379 L53.7210621,53.9345379 L53.7210621,58.3334345 C53.7210621,60.8267586 51.7812966,62.732331 49.3221655,62.732331 C46.8630345,62.732331 44.923269,60.8267586 44.923269,58.3334345 L44.923269,53.9345379 L26.7001931,53.9345379 L26.7001931,58.3334345 C26.7001931,60.8267586 24.7604276,62.732331 22.3012966,62.732331 C19.8421655,62.732331 17.9024,60.8267586 17.9024,58.3334345 L17.9024,53.9345379 L0.307737931,53.9345379 L0.307737931,80.9554069 L17.9024,99.1784828 L31.7265793,99.1784828 L31.7265793,94.7795862 C31.7265793,92.2853379 33.4436276,89.7522759 35.9036828,89.7522759 C38.3628138,89.7522759 40.5243724,92.2853379 40.5243724,94.7795862 L40.5243724,99.1784828 L53.7201379,99.1784828 L70.6863862,80.9554069 L70.6863862,53.9345379 L70.6882345,53.9345379 Z" id="Shape"></path>
                <path d="M159.919297,55.8197793 C168.77531,55.8197793 176.257131,63.3016 176.257131,72.1576138 C176.257131,77.8549241 173.314676,83.2250897 168.578469,86.1740138 L167.183945,87.0417793 L167.852097,88.5416552 C168.860331,90.804869 171.173448,92.265931 173.742552,92.265931 L174.370966,92.265931 L174.370966,97.2932414 L161.80269,97.2932414 L161.80269,94.7795862 C161.80269,91.2558483 159.04229,88.4954483 155.518552,88.4954483 C151.994814,88.4954483 149.234414,91.2558483 149.234414,94.7795862 L149.234414,97.2932414 L134.781821,97.2932414 L134.781821,55.8197793 L151.119655,55.8197793 L159.919297,55.8197793 L159.919297,55.8197793 Z M159.919297,53.9345379 L151.121503,53.9345379 L132.898428,53.9345379 L132.898428,99.1784828 L151.121503,99.1784828 L151.121503,94.7795862 C151.121503,92.2844138 153.060345,90.3806897 155.5204,90.3806897 C157.980455,90.3806897 159.919297,92.2844138 159.919297,94.7795862 L159.919297,99.1784828 L176.257131,99.1784828 L176.257131,90.3806897 L173.743476,90.3806897 C171.936786,90.3806897 170.273338,89.3401103 169.575614,87.7736966 C174.679628,84.5955862 178.142372,78.6755586 178.142372,72.1566897 C178.143297,62.1815448 169.757669,53.9345379 159.919297,53.9345379 L159.919297,53.9345379 Z" id="Shape"></path>
                <path d="M42.4105379,44.508331 L28.5854345,44.508331 L28.5854345,41.3662621 C28.5854345,37.8425241 25.8250345,35.0821241 22.3012966,35.0821241 C18.7775586,35.0821241 16.0171586,37.8425241 16.0171586,41.3662621 L16.0171586,43.2515034 L16.0171586,44.508331 L2.19297931,44.508331 L2.19297931,3.03486897 L16.0171586,3.03486897 L16.0171586,5.54852414 C16.0171586,8.81812414 18.5982759,12.4610759 22.3012966,12.4610759 C25.7067448,12.4610759 28.5854345,9.46409655 28.5854345,5.91725517 L28.5854345,5.54852414 L28.5854345,3.03486897 L42.4105379,3.03486897 L42.4105379,44.508331 Z M26.7001931,1.14962759 L26.7001931,5.54852414 L26.7001931,5.91725517 C26.7001931,8.37638621 24.7604276,10.5758345 22.3012966,10.5758345 C19.8421655,10.5758345 17.9024,8.00857931 17.9024,5.54852414 L17.9024,1.14962759 L0.307737931,1.14962759 L0.307737931,46.3935724 L17.9024,46.3935724 L17.9024,43.2515034 L17.9024,41.3662621 C17.9024,38.907131 19.8421655,36.9673655 22.3012966,36.9673655 C24.7604276,36.9673655 26.7001931,38.9062069 26.7001931,41.3662621 L26.7001931,46.3935724 L44.2948552,46.3935724 L44.2948552,1.14962759 L26.7001931,1.14962759 Z" id="Shape"></path>
                <path d="M87.026069,3.03486897 L87.026069,8.6905931 L84.5124138,8.6905931 C80.9886759,8.6905931 78.2282759,11.3844552 78.2282759,14.8240966 C78.2282759,18.0863034 80.6966483,20.7810897 83.8572,21.124869 C84.0808414,21.2135862 84.3174207,21.2579448 84.5484552,21.2579448 L87.026069,21.2579448 L87.026069,26.2852552 L84.5124138,26.2852552 C80.9886759,26.2852552 78.2282759,29.0456552 78.2282759,32.5693931 C78.2282759,36.093131 80.9886759,38.853531 84.5124138,38.853531 L87.026069,38.853531 L87.026069,44.5092552 L54.9778897,44.5092552 L54.9778897,3.03486897 L87.026069,3.03486897 L87.026069,3.03486897 Z M88.9113103,1.14962759 L53.0926483,1.14962759 L53.0926483,46.3935724 L88.9113103,46.3935724 L88.9113103,36.9673655 L84.5124138,36.9673655 C82.0532828,36.9673655 80.1135172,35.0285241 80.1135172,32.568469 C80.1135172,30.1093379 82.0523586,28.1695724 84.5124138,28.1695724 L88.9113103,28.1695724 L88.9113103,19.3717793 L84.5484552,19.3717793 C84.5466069,19.3717793 84.5438345,19.275669 84.5419862,19.275669 C82.0828552,19.275669 80.1135172,17.2813793 80.1135172,14.8231724 C80.1135172,12.3640414 82.0523586,10.5749103 84.5124138,10.5749103 L88.9113103,10.5749103 L88.9113103,1.14962759 L88.9113103,1.14962759 Z" id="Shape"></path>
                <path d="M202.65051,55.8197793 L202.65051,85.3543034 C202.65051,88.7597517 205.653034,91.6384414 209.207269,91.6384414 L212.076717,91.6384414 L212.076717,97.2941655 L188.826331,97.2941655 L188.826331,55.8197793 L202.65051,55.8197793 L202.65051,55.8197793 Z M204.535752,53.9345379 L186.94109,53.9345379 L186.94109,99.1784828 L213.961959,99.1784828 L213.961959,89.7522759 L209.207269,89.7522759 C206.748138,89.7522759 204.535752,87.8134345 204.535752,85.3533793 L204.535752,53.9345379 L204.535752,53.9345379 Z" id="Shape"></path>
            </g>
        </g>
    </g>
</svg>