<?xml version="1.0" encoding="UTF-8"?>
<svg width="34px" height="35px" viewBox="0 0 34 35" version="1.1" xmlns="http://www.w3.org/2000/svg" xmlns:xlink="http://www.w3.org/1999/xlink">
    <!-- Generator: Sketch 43 (38999) - http://www.bohemiancoding.com/sketch -->
    <defs></defs>
    <g id="Page-1" stroke="none" stroke-width="1" fill-rule="evenodd">
        <g id="Index-05" transform="translate(-1416.000000, -4168.000000)" fill-rule="nonzero">
            <g id="footer" transform="translate(50.000000, 4150.000000)">
                <g id="social" transform="translate(1322.000000, 18.339623)">
                    <path d="M60.88168,0 C51.57316,0 44,7.71604981 44,17.2002023 C44,26.6836619 51.57316,34.4004045 60.88168,34.4004045 C70.18952,34.4004045 77.76336,26.6836619 77.76336,17.2002023 C77.76336,7.71604981 70.19088,0 60.88168,0 Z M65.08,17.8057358 L62.33348,17.8057358 L62.33348,27.7797192 L58.26368,27.7797192 L58.26368,17.8057358 L56.32908,17.8057358 L56.32908,14.2806158 L58.26368,14.2806158 L58.26368,12.0005117 C58.26368,10.3675109 59.02528,7.81581736 62.37088,7.81581736 L65.38668,7.82759547 L65.38668,11.2494838 L63.19776,11.2494838 C62.84144,11.2494838 62.33484,11.4310053 62.33484,12.2097464 L62.33484,14.2813087 L65.43564,14.2813087 L65.08,17.8057358 Z" id="facebook"></path>
                </g>
            </g>
        </g>
    </g>
</svg>